<?xml version="1.0" encoding="UTF-8"?>
<svg width="49px" height="72px" viewBox="0 0 49 72" version="1.1" xmlns="http://www.w3.org/2000/svg" xmlns:xlink="http://www.w3.org/1999/xlink">
    <!-- Generator: Sketch 48.1 (47250) - http://www.bohemiancoding.com/sketch -->
    <title>logo</title>
    <desc>Created with Sketch.</desc>
    <defs></defs>
    <g id="Desktop-HD" stroke="none" stroke-width="1" fill="none" fill-rule="evenodd" transform="translate(-125.000000, -56.000000)">
        <g id="Header" transform="translate(125.000000, 56.000000)" fill="#FFFFFF" fill-rule="nonzero">
            <g id="logo/unboxed">
                <path d="M0,0 L25.1105919,19.8359621 L25.1105919,1.96845426 L49,1.96845426 L49,52.2397476 L31.3691589,52.2397476 L24.728972,45.3501577 L18.0124611,52.2397476 L0,52.2397476 L0,0 Z M8.01401869,71.8485804 L3.12928349,64.6561514 L3.12928349,71.8485804 L0,71.8485804 L0,59.0536278 L3.0529595,59.0536278 L7.9376947,66.2460568 L7.9376947,59.0536278 L11.0669782,59.0536278 L11.0669782,71.8485804 L8.01401869,71.8485804 Z M20.3785047,71.8485804 L18.241433,71.8485804 L15.6464174,65.7917981 L15.6464174,71.8485804 L12.8224299,71.8485804 L12.8224299,59.0536278 L16.7149533,59.0536278 L19.3099688,66.3974763 L21.9049844,59.0536278 L25.7975078,59.0536278 L25.7975078,71.8485804 L22.9735202,71.8485804 L22.9735202,65.7917981 L20.3785047,71.8485804 Z M45.1838006,71.8485804 L42.3598131,71.8485804 L42.3598131,62.3091483 L38.5436137,62.3091483 L38.5436137,59.0536278 L49,59.0536278 L49,62.3091483 L45.1838006,62.3091483 L45.1838006,71.8485804 Z M36.3302181,68.6687697 L36.711838,68.6687697 L36.711838,71.5457413 L36.55919,71.6214511 C36.1012461,71.7728707 35.8722741,71.8485804 35.4143302,71.9242902 C34.8800623,72 34.4221184,72 33.8878505,72 C32.8956386,72 31.9034268,71.8485804 31.1401869,71.5457413 C30.3006231,71.2429022 29.6137072,70.7886435 29.0794393,70.2586751 C28.5451713,69.7287066 28.1635514,69.0473186 27.8582555,68.2902208 C27.6292835,67.533123 27.4766355,66.7003155 27.4766355,65.7917981 C27.4766355,64.8832808 27.6292835,63.9747634 27.9345794,63.2176656 C28.1635514,62.384858 28.6214953,61.70347 29.1557632,61.0977918 C29.6900312,60.4921136 30.376947,59.9621451 31.2165109,59.659306 C32.0560748,59.2807571 32.9719626,59.1293375 33.9641745,59.1293375 C34.4984424,59.1293375 34.9563863,59.1293375 35.4143302,59.2050473 C35.8722741,59.2807571 36.1775701,59.3564669 36.55919,59.5078864 L36.711838,59.5835962 L36.711838,62.384858 L36.1775701,62.2334385 C35.7959502,62.0820189 35.5669782,62.0820189 35.1853583,62.0063091 C34.3457944,61.8548896 33.4299065,61.8548896 32.7429907,62.1577287 C32.2850467,62.3091483 31.9797508,62.5362776 31.6744548,62.8391167 C31.3691589,63.1419558 31.1401869,63.5205047 30.9875389,63.9747634 C30.834891,64.4290221 30.758567,64.9589905 30.758567,65.5646688 C30.758567,66.170347 30.834891,66.7003155 30.9875389,67.1545741 C31.1401869,67.533123 31.2928349,67.9116719 31.5981308,68.214511 C31.9034268,68.4416404 32.2087227,68.6687697 32.5903427,68.8201893 C33.3535826,69.1230284 34.2694704,69.1230284 35.2616822,68.9716088 C35.7196262,68.8958991 35.9485981,68.8201893 36.3302181,68.6687697 Z" id="Combined-Shape"></path>
            </g>
        </g>
    </g>
</svg>