<?xml version="1.0" encoding="UTF-8"?>
<svg width="1304px" height="222px" viewBox="0 0 1304 222" version="1.1" xmlns="http://www.w3.org/2000/svg" xmlns:xlink="http://www.w3.org/1999/xlink">
    <!-- Generator: Sketch 48.2 (47327) - http://www.bohemiancoding.com/sketch -->
    <title>Programma Copy 2</title>
    <desc>Created with Sketch.</desc>
    <defs></defs>
    <g id="Desktop-HD" stroke="none" stroke-width="1" fill="none" fill-rule="evenodd" transform="translate(-155.000000, -2519.000000)">
        <path d="M155.172,2689 L155.172,2519.506 L225.282,2519.506 C261.444,2519.506 285.798,2539.678 285.798,2571.904 C285.798,2608.804 258,2625.778 224.544,2625.778 L191.826,2625.778 L191.826,2689 L155.172,2689 Z M191.826,2548.534 L191.826,2596.504 L219.87,2596.504 C236.844,2596.504 248.898,2589.862 248.898,2572.642 C248.898,2555.176 236.106,2548.534 220.608,2548.534 L191.826,2548.534 Z M307.938,2689 L307.938,2596.258 C307.938,2583.466 307.938,2572.396 307.692,2561.572 L342.378,2561.572 C342.87,2564.524 343.362,2577.07 343.362,2583.958 C349.02,2569.444 362.55,2558.866 384.198,2558.62 L384.198,2592.322 C358.614,2591.584 343.362,2598.472 343.362,2633.404 L343.362,2689 L307.938,2689 Z M459.474,2558.62 C496.866,2558.62 521.22,2585.188 521.22,2625.04 C521.22,2663.662 498.096,2691.952 457.752,2691.952 C418.392,2691.952 395.268,2663.662 395.268,2625.778 C395.268,2586.418 419.13,2558.62 459.474,2558.62 Z M457.998,2586.418 C441.762,2586.418 430.938,2598.472 430.938,2625.286 C430.938,2649.886 441.516,2664.4 458.49,2664.4 C475.956,2664.4 485.55,2649.886 485.55,2625.532 C485.55,2598.964 475.71,2586.418 457.998,2586.418 Z M662.178,2598.226 L662.178,2673.502 C662.178,2714.338 647.172,2740.168 598.956,2740.168 C552.462,2740.168 543.36,2714.338 542.13,2699.824 L578.046,2699.824 C580.506,2708.68 586.902,2714.584 600.432,2714.584 C623.31,2714.584 627.738,2700.562 627.738,2675.716 L627.738,2669.566 C621.096,2680.636 610.518,2687.524 591.822,2687.524 C558.366,2687.524 539.178,2659.972 539.178,2625.778 C539.178,2585.926 563.04,2558.62 594.774,2558.62 C616.668,2558.62 625.77,2568.952 627.738,2574.856 C627.984,2571.412 628.968,2563.786 629.214,2561.572 L662.424,2561.572 C662.424,2573.134 662.178,2585.926 662.178,2598.226 Z M575.34,2624.302 C575.34,2646.196 586.41,2658.988 601.908,2658.988 C623.064,2658.988 628.722,2644.474 628.722,2623.072 C628.722,2601.67 625.032,2586.91 602.646,2586.91 C587.394,2586.91 575.34,2598.718 575.34,2624.302 Z M693.42,2689 L693.42,2596.258 C693.42,2583.466 693.42,2572.396 693.174,2561.572 L727.86,2561.572 C728.352,2564.524 728.844,2577.07 728.844,2583.958 C734.502,2569.444 748.032,2558.866 769.68,2558.62 L769.68,2592.322 C744.096,2591.584 728.844,2598.472 728.844,2633.404 L728.844,2689 L693.42,2689 Z M891.942,2602.654 L891.942,2656.036 C891.942,2668.336 892.926,2686.048 893.664,2689 L859.962,2689 C858.978,2686.54 858.24,2679.652 858.24,2676.454 C853.566,2683.588 844.956,2691.952 822.324,2691.952 C791.574,2691.952 778.782,2671.78 778.782,2652.1 C778.782,2623.072 801.906,2609.542 839.298,2609.542 L857.502,2609.542 L857.502,2601.916 C857.502,2592.814 854.304,2583.958 837.822,2583.958 C823.062,2583.958 819.618,2590.108 818.142,2599.456 L784.686,2599.456 C786.408,2576.824 800.43,2558.62 839.298,2558.62 C873.246,2558.866 891.942,2572.15 891.942,2602.654 Z M857.502,2634.388 L857.502,2630.944 L843.234,2630.944 C821.832,2630.944 813.96,2637.586 813.96,2649.886 C813.96,2658.988 819.618,2666.86 832.41,2666.86 C854.796,2666.86 857.502,2651.116 857.502,2634.388 Z M923.676,2689 L923.676,2594.536 C923.676,2583.466 923.676,2572.642 923.43,2561.572 L957.132,2561.572 C957.624,2564.77 958.362,2571.904 958.608,2576.824 C965.004,2567.476 975.336,2558.62 994.032,2558.62 C1012.236,2558.62 1022.322,2568.214 1026.75,2578.054 C1034.376,2567.722 1045.2,2558.62 1066.11,2558.62 C1088.25,2558.62 1106.454,2572.396 1106.454,2605.36 L1106.454,2689 L1072.014,2689 L1072.014,2609.788 C1072.014,2598.226 1067.832,2586.91 1053.318,2586.91 C1038.558,2586.91 1032.654,2596.75 1032.654,2616.184 L1032.654,2689 L997.968,2689 L997.968,2611.018 C997.968,2597.98 994.77,2587.156 979.764,2587.156 C965.496,2587.156 958.608,2596.012 958.608,2617.906 L958.608,2689 L923.676,2689 Z M1137.942,2689 L1137.942,2594.536 C1137.942,2583.466 1137.942,2572.642 1137.696,2561.572 L1171.398,2561.572 C1171.89,2564.77 1172.628,2571.904 1172.874,2576.824 C1179.27,2567.476 1189.602,2558.62 1208.298,2558.62 C1226.502,2558.62 1236.588,2568.214 1241.016,2578.054 C1248.642,2567.722 1259.466,2558.62 1280.376,2558.62 C1302.516,2558.62 1320.72,2572.396 1320.72,2605.36 L1320.72,2689 L1286.28,2689 L1286.28,2609.788 C1286.28,2598.226 1282.098,2586.91 1267.584,2586.91 C1252.824,2586.91 1246.92,2596.75 1246.92,2616.184 L1246.92,2689 L1212.234,2689 L1212.234,2611.018 C1212.234,2597.98 1209.036,2587.156 1194.03,2587.156 C1179.762,2587.156 1172.874,2596.012 1172.874,2617.906 L1172.874,2689 L1137.942,2689 Z M1456.512,2602.654 L1456.512,2656.036 C1456.512,2668.336 1457.496,2686.048 1458.234,2689 L1424.532,2689 C1423.548,2686.54 1422.81,2679.652 1422.81,2676.454 C1418.136,2683.588 1409.526,2691.952 1386.894,2691.952 C1356.144,2691.952 1343.352,2671.78 1343.352,2652.1 C1343.352,2623.072 1366.476,2609.542 1403.868,2609.542 L1422.072,2609.542 L1422.072,2601.916 C1422.072,2592.814 1418.874,2583.958 1402.392,2583.958 C1387.632,2583.958 1384.188,2590.108 1382.712,2599.456 L1349.256,2599.456 C1350.978,2576.824 1365,2558.62 1403.868,2558.62 C1437.816,2558.866 1456.512,2572.15 1456.512,2602.654 Z M1422.072,2634.388 L1422.072,2630.944 L1407.804,2630.944 C1386.402,2630.944 1378.53,2637.586 1378.53,2649.886 C1378.53,2658.988 1384.188,2666.86 1396.98,2666.86 C1419.366,2666.86 1422.072,2651.116 1422.072,2634.388 Z" id="Programma-Copy-2" fill="#F2F2F2"></path>
    </g>
</svg>