<?xml version="1.0" encoding="UTF-8"?>
<svg width="1072px" height="232px" viewBox="0 0 1072 232" version="1.1" xmlns="http://www.w3.org/2000/svg" xmlns:xlink="http://www.w3.org/1999/xlink">
    <!-- Generator: Sketch 48.2 (47327) - http://www.bohemiancoding.com/sketch -->
    <title>word-projects</title>
    <desc>Created with Sketch.</desc>
    <defs></defs>
    <g id="Home" stroke="none" stroke-width="1" fill="none" fill-rule="evenodd">
        <g id="word-projects" fill="#F2F2F3">
            <path d="M0,179.776119 L0,10.0970149 L70.0873362,10.0970149 C106.237647,10.0970149 130.583774,30.2910448 130.583774,62.5522388 C130.583774,99.4925373 102.79476,116.485075 69.3495748,116.485075 L36.6421512,116.485075 L36.6421512,179.776119 L0,179.776119 Z M36.6421512,39.1567164 L36.6421512,87.1791045 L64.6770857,87.1791045 C81.6455987,87.1791045 93.6957021,80.5298507 93.6957021,63.2910448 C93.6957021,45.8059701 80.9078373,39.1567164 65.4148472,39.1567164 L36.6421512,39.1567164 Z M152.716617,179.776119 L152.716617,86.9328358 C152.716617,74.1268657 152.716617,63.0447761 152.470696,52.2089552 L187.145484,52.2089552 C187.637325,55.1641791 188.129166,67.7238806 188.129166,74.619403 C193.785337,60.0895522 207.310963,49.5 228.951965,49.2537313 L228.951965,82.9925373 C203.376235,82.2537313 188.129166,89.1492537 188.129166,124.119403 L188.129166,179.776119 L152.716617,179.776119 Z M304.203631,49.2537313 C341.583544,49.2537313 365.929671,75.8507463 365.929671,115.746269 C365.929671,154.410448 342.813146,182.731343 302.482188,182.731343 C263.134912,182.731343 240.018387,154.410448 240.018387,116.485075 C240.018387,77.0820896 263.872673,49.2537313 304.203631,49.2537313 Z M302.728108,77.0820896 C286.497357,77.0820896 275.676856,89.1492537 275.676856,115.992537 C275.676856,140.619403 286.251436,155.149254 303.219949,155.149254 C320.680303,155.149254 330.271202,140.619403 330.271202,116.238806 C330.271202,89.641791 320.434383,77.0820896 302.728108,77.0820896 Z M391.259481,52.2089552 L426.672029,52.2089552 L426.672029,177.067164 C426.672029,213.514925 419.294415,231 384.373707,231 C381.176741,231 376.504252,230.753731 373.553206,230.507463 L373.553206,202.186567 C374.536888,202.432836 375.76649,202.432836 376.750172,202.432836 C388.062514,202.432836 391.259481,198 391.259481,184.208955 L391.259481,52.2089552 Z M426.672029,31.5223881 L391.259481,31.5223881 L391.259481,0 L426.672029,0 L426.672029,31.5223881 Z M570.289589,123.626866 L486.184785,123.626866 C486.184785,139.634328 494.300161,155.149254 511.760515,155.149254 C526.515744,155.149254 530.696392,149.238806 534.139278,141.604478 L569.305907,141.604478 C564.879338,157.119403 550.861871,182.731343 511.022753,182.731343 C468.970352,182.731343 450.772236,151.455224 450.772236,117.962687 C450.772236,77.8208955 471.183636,49.2537313 512.252356,49.2537313 C555.78028,49.2537313 570.78143,81.0223881 570.78143,112.791045 C570.78143,117.223881 570.78143,119.932836 570.289589,123.626866 Z M486.922547,101.955224 L535.368881,101.955224 C535.12296,87.1791045 529.220869,74.619403 512.006435,74.619403 C495.283843,74.619403 488.398069,86.1940299 486.922547,101.955224 Z M672.592507,138.649254 L707.021374,138.649254 C702.840726,159.828358 687.839577,182.731343 649.967823,182.731343 C610.374627,182.731343 589.963227,155.395522 589.963227,116.977612 C589.963227,79.2985075 612.833831,49.2537313 651.689267,49.2537313 C694.47943,49.2537313 706.529533,80.2835821 707.021374,94.5671642 L672.838428,94.5671642 C670.625144,84.2238806 664.723052,77.0820896 650.951505,77.0820896 C634.720754,77.0820896 625.621696,91.119403 625.621696,115.746269 C625.621696,143.08209 635.458515,155.395522 650.705585,155.395522 C663.001609,155.395522 669.395541,148.253731 672.592507,138.649254 Z M719.071478,78.8059701 L719.071478,52.2089552 L738.745116,52.2089552 L738.745116,17.7313433 L773.911744,17.7313433 L773.911744,52.2089552 L798.995633,52.2089552 L798.995633,78.8059701 L773.911744,78.8059701 L773.911744,141.850746 C773.911744,151.455224 776.86279,155.149254 787.437371,155.149254 C789.404735,155.149254 792.847621,155.149254 795.306826,154.902985 L795.306826,179.037313 C788.421053,181.5 778.830154,181.5 771.69846,181.5 C746.860492,181.5 738.745116,168.201493 738.745116,145.791045 L738.745116,78.8059701 L719.071478,78.8059701 Z M930.317168,123.626866 L846.212365,123.626866 C846.212365,139.634328 854.327741,155.149254 871.788095,155.149254 C886.543323,155.149254 890.723972,149.238806 894.166858,141.604478 L929.333487,141.604478 C924.906918,157.119403 910.889451,182.731343 871.050333,182.731343 C828.997932,182.731343 810.799816,151.455224 810.799816,117.962687 C810.799816,77.8208955 831.211216,49.2537313 872.279936,49.2537313 C915.80786,49.2537313 930.809009,81.0223881 930.809009,112.791045 C930.809009,117.223881 930.809009,119.932836 930.317168,123.626866 Z M846.950126,101.955224 L895.396461,101.955224 C895.15054,87.1791045 889.248449,74.619403 872.034015,74.619403 C855.311423,74.619403 848.425649,86.1940299 846.950126,101.955224 Z M955.646978,179.776119 L955.646978,84.4701493 C955.646978,73.6343284 955.646978,61.8134328 955.401057,52.2089552 L989.584004,52.2089552 C990.321765,55.6567164 990.813606,64.5223881 991.059527,68.4626866 C995.240175,60.5820896 1005.56883,49.2537313 1027.9476,49.2537313 C1053.52333,49.2537313 1070,66.738806 1070,98.7537313 L1070,179.776119 L1034.83337,179.776119 L1034.83337,102.69403 C1034.83337,88.1641791 1030.16088,77.8208955 1014.42197,77.8208955 C999.420823,77.8208955 991.059527,86.1940299 991.059527,108.850746 L991.059527,179.776119 L955.646978,179.776119 Z" id="Projecten"></path>
        </g>
    </g>
</svg>