<?xml version="1.0" encoding="UTF-8"?>
<svg width="1304px" height="222px" viewBox="0 0 1304 222" version="1.1" xmlns="http://www.w3.org/2000/svg" xmlns:xlink="http://www.w3.org/1999/xlink">
    <!-- Generator: Sketch 48.2 (47327) - http://www.bohemiancoding.com/sketch -->
    <title>word-programm</title>
    <desc>Created with Sketch.</desc>
    <defs></defs>
    <g id="Home" stroke="none" stroke-width="1" fill="none" fill-rule="evenodd">
        <g id="word-programm" fill="#F2F2F3">
            <path d="M0,169.753623 L0,0 L70.1066641,0 C106.266944,0 130.619785,20.2028986 130.619785,52.4782609 C130.619785,89.4347826 102.823107,106.434783 69.3686993,106.434783 L36.652256,106.434783 L36.652256,169.753623 L0,169.753623 Z M36.652256,29.0724638 L36.652256,77.115942 L64.6949217,77.115942 C81.668114,77.115942 93.7215405,70.4637681 93.7215405,53.2173913 C93.7215405,35.7246377 80.9301491,29.0724638 65.4328865,29.0724638 L36.652256,29.0724638 Z M152.758731,169.753623 L152.758731,76.8695652 C152.758731,64.057971 152.758731,52.9710145 152.512743,42.1304348 L187.197093,42.1304348 C187.689069,45.0869565 188.181046,57.6521739 188.181046,64.5507246 C193.838777,50.0144928 207.368133,39.4202899 229.015103,39.173913 L229.015103,72.9275362 C203.43232,72.1884058 188.181046,79.0869565 188.181046,114.072464 L188.181046,169.753623 L152.758731,169.753623 Z M304.287521,39.173913 C341.677742,39.173913 366.030583,65.7826087 366.030583,105.695652 C366.030583,144.376812 342.907684,172.710145 302.565603,172.710145 C263.207476,172.710145 240.084576,144.376812 240.084576,106.434783 C240.084576,67.0144928 263.945441,39.173913 304.287521,39.173913 Z M302.811591,67.0144928 C286.576364,67.0144928 275.752879,79.0869565 275.752879,105.942029 C275.752879,130.57971 286.330376,145.115942 303.303568,145.115942 C320.768737,145.115942 330.362281,130.57971 330.362281,106.188406 C330.362281,79.5797101 320.522749,67.0144928 302.811591,67.0144928 Z M506.981877,78.8405797 L506.981877,154.231884 C506.981877,195.130435 491.976591,221 443.762885,221 C397.271097,221 388.16953,195.130435 386.939588,180.594203 L422.85388,180.594203 C425.313763,189.463768 431.709458,195.376812 445.238814,195.376812 C468.115726,195.376812 472.543515,181.333333 472.543515,156.449275 L472.543515,150.289855 C465.901831,161.376812 455.324335,168.275362 436.629224,168.275362 C403.174816,168.275362 383.987729,140.681159 383.987729,106.434783 C383.987729,66.5217391 407.848594,39.173913 439.581084,39.173913 C461.474042,39.173913 470.575609,49.5217391 472.543515,55.4347826 C472.789503,51.9855072 473.773457,44.3478261 474.019445,42.1304348 L507.227865,42.1304348 C507.227865,53.7101449 506.981877,66.5217391 506.981877,78.8405797 Z M420.148008,104.956522 C420.148008,126.884058 431.217482,139.695652 446.714744,139.695652 C467.869738,139.695652 473.527468,125.15942 473.527468,103.724638 C473.527468,82.2898551 469.837644,67.5072464 447.452709,67.5072464 C432.201435,67.5072464 420.148008,79.3333333 420.148008,104.956522 Z M538.22239,169.753623 L538.22239,76.8695652 C538.22239,64.057971 538.22239,52.9710145 537.976402,42.1304348 L572.660751,42.1304348 C573.152728,45.0869565 573.644705,57.6521739 573.644705,64.5507246 C579.302435,50.0144928 592.831792,39.4202899 614.478762,39.173913 L614.478762,72.9275362 C588.895979,72.1884058 573.644705,79.0869565 573.644705,114.072464 L573.644705,169.753623 L538.22239,169.753623 Z M736.734944,83.2753623 L736.734944,136.73913 C736.734944,149.057971 737.718897,166.797101 738.456862,169.753623 L704.756466,169.753623 C703.772513,167.289855 703.034548,160.391304 703.034548,157.188406 C698.36077,164.333333 689.75118,172.710145 667.120257,172.710145 C636.37172,172.710145 623.580328,152.507246 623.580328,132.797101 C623.580328,103.724638 646.703228,90.173913 684.093449,90.173913 L702.296583,90.173913 L702.296583,82.5362319 C702.296583,73.4202899 699.098735,64.5507246 682.617519,64.5507246 C667.858222,64.5507246 664.414386,70.7101449 662.938456,80.0724638 L629.484048,80.0724638 C631.205966,57.4057971 645.227298,39.173913 684.093449,39.173913 C718.039834,39.4202899 736.734944,52.7246377 736.734944,83.2753623 Z M702.296583,115.057971 L702.296583,111.608696 L688.029262,111.608696 C666.62828,111.608696 658.756655,118.26087 658.756655,130.57971 C658.756655,139.695652 664.414386,147.57971 677.205777,147.57971 C699.590712,147.57971 702.296583,131.811594 702.296583,115.057971 Z M768.467434,169.753623 L768.467434,75.1449275 C768.467434,64.057971 768.467434,53.2173913 768.221446,42.1304348 L801.921843,42.1304348 C802.413819,45.3333333 803.151784,52.4782609 803.397772,57.4057971 C809.793468,48.0434783 820.124976,39.173913 838.820087,39.173913 C857.023221,39.173913 867.108741,48.7826087 871.53653,58.6376812 C879.162167,48.2898551 889.985652,39.173913 910.894657,39.173913 C933.033604,39.173913 951.236738,52.9710145 951.236738,85.9855072 L951.236738,169.753623 L916.798376,169.753623 L916.798376,90.4202899 C916.798376,78.8405797 912.616575,67.5072464 898.103266,67.5072464 C883.343968,67.5072464 877.440249,77.3623188 877.440249,96.826087 L877.440249,169.753623 L842.7559,169.753623 L842.7559,91.6521739 C842.7559,78.5942029 839.558052,67.7536232 824.552766,67.7536232 C810.285445,67.7536232 803.397772,76.6231884 803.397772,98.5507246 L803.397772,169.753623 L768.467434,169.753623 Z M982.72324,169.753623 L982.72324,75.1449275 C982.72324,64.057971 982.72324,53.2173913 982.477251,42.1304348 L1016.17765,42.1304348 C1016.66962,45.3333333 1017.40759,52.4782609 1017.65358,57.4057971 C1024.04927,48.0434783 1034.38078,39.173913 1053.07589,39.173913 C1071.27903,39.173913 1081.36455,48.7826087 1085.79234,58.6376812 C1093.41797,48.2898551 1104.24146,39.173913 1125.15046,39.173913 C1147.28941,39.173913 1165.49254,52.9710145 1165.49254,85.9855072 L1165.49254,169.753623 L1131.05418,169.753623 L1131.05418,90.4202899 C1131.05418,78.8405797 1126.87238,67.5072464 1112.35907,67.5072464 C1097.59977,67.5072464 1091.69605,77.3623188 1091.69605,96.826087 L1091.69605,169.753623 L1057.0117,169.753623 L1057.0117,91.6521739 C1057.0117,78.5942029 1053.81386,67.7536232 1038.80857,67.7536232 C1024.54125,67.7536232 1017.65358,76.6231884 1017.65358,98.5507246 L1017.65358,169.753623 L982.72324,169.753623 Z M1301.27808,83.2753623 L1301.27808,136.73913 C1301.27808,149.057971 1302.26204,166.797101 1303,169.753623 L1269.2996,169.753623 C1268.31565,167.289855 1267.57769,160.391304 1267.57769,157.188406 C1262.90391,164.333333 1254.29432,172.710145 1231.66339,172.710145 C1200.91486,172.710145 1188.12347,152.507246 1188.12347,132.797101 C1188.12347,103.724638 1211.24637,90.173913 1248.63659,90.173913 L1266.83972,90.173913 L1266.83972,82.5362319 C1266.83972,73.4202899 1263.64187,64.5507246 1247.16066,64.5507246 C1232.40136,64.5507246 1228.95752,70.7101449 1227.48159,80.0724638 L1194.02719,80.0724638 C1195.7491,57.4057971 1209.77044,39.173913 1248.63659,39.173913 C1282.58297,39.4202899 1301.27808,52.7246377 1301.27808,83.2753623 Z M1266.83972,115.057971 L1266.83972,111.608696 L1252.5724,111.608696 C1231.17142,111.608696 1223.29979,118.26087 1223.29979,130.57971 C1223.29979,139.695652 1228.95752,147.57971 1241.74891,147.57971 C1264.13385,147.57971 1266.83972,131.811594 1266.83972,115.057971 Z" id="Programma"></path>
        </g>
    </g>
</svg>