<?xml version="1.0" encoding="UTF-8"?>
<svg width="24px" height="24px" viewBox="0 0 24 24" version="1.1" xmlns="http://www.w3.org/2000/svg" xmlns:xlink="http://www.w3.org/1999/xlink">
    <!-- Generator: Sketch 48.2 (47327) - http://www.bohemiancoding.com/sketch -->
    <title>social-twitter</title>
    <desc>Created with Sketch.</desc>
    <defs></defs>
    <g id="Page-1" stroke="none" stroke-width="1" fill="none" fill-rule="evenodd">
        <g id="social-twitter" fill="#000000" fill-rule="nonzero">
            <path d="M18.891,7.313 C19.699,6.817 20.234,6.14 20.496,5.279 C19.71,5.696 18.927,5.982 18.145,6.14 C17.442,5.384 16.552,5 15.485,5 C14.442,5 13.561,5.366 12.842,6.078 C12.127,6.795 11.766,7.666 11.766,8.683 C11.766,8.992 11.805,9.268 11.883,9.502 C8.807,9.397 6.261,8.121 4.255,5.665 C3.915,6.266 3.745,6.878 3.745,7.511 C3.745,8.812 4.294,9.843 5.39,10.6 C4.765,10.547 4.214,10.389 3.745,10.13 C3.745,11.059 4.018,11.835 4.565,12.518 C5.114,13.194 5.819,13.625 6.68,13.809 C6.368,13.889 6.039,13.927 5.701,13.927 C5.389,13.927 5.168,13.901 5.037,13.844 C5.267,14.601 5.701,15.215 6.328,15.685 C6.953,16.157 7.672,16.406 8.48,16.428 C7.148,17.473 5.625,17.99 3.902,17.99 C3.48,17.99 3.181,17.984 3,17.952 C4.697,19.054 6.586,19.601 8.676,19.601 C10.815,19.601 12.705,19.059 14.35,17.975 C15.995,16.897 17.209,15.567 17.989,14.001 C18.773,12.437 19.161,10.809 19.161,9.109 L19.161,8.641 C19.919,8.071 20.532,7.429 21.001,6.72 C20.321,7.013 19.618,7.212 18.891,7.313 Z" id="Shape"></path>
        </g>
    </g>
</svg>