<svg id="Laag_1" data-name="Laag 1" xmlns="http://www.w3.org/2000/svg" viewBox="0 0 281.37 144.07">
  <title>Artboard 2</title>
  <g>
    <g>
      <path d="M104.91,86.46a2,2,0,0,1-.1-.51.59.59,0,0,1,.63-.59c.29,0,.56.1.74.68l1.71,5.47h0l1.67-5.28c.18-.57.3-.87.79-.87s.6.3.78.87l1.68,5.28h0l1.7-5.47c.18-.58.45-.68.74-.68A.6.6,0,0,1,116,86a2,2,0,0,1-.11.51l-2.2,6.41c-.18.51-.4.7-.77.7s-.59-.19-.76-.7l-1.72-5.42h0l-1.72,5.42c-.16.51-.39.7-.75.7s-.59-.19-.77-.7Z"/>
      <path d="M117.7,90a2.28,2.28,0,0,0,2.37,2.45c1.76,0,2.21-1.09,2.71-1.09a.53.53,0,0,1,.48.59c0,.65-1.64,1.65-3.21,1.65-2.56,0-3.68-2-3.68-4.11s1.36-4.1,3.61-4.1a3.65,3.65,0,0,1,3.45,3.91c0,.46-.17.7-.74.7Zm4.4-1A2.26,2.26,0,0,0,120,86.5c-1.65-.06-2.24,1.26-2.28,2.48Z"/>
      <path d="M133.72,92.46h0a2.17,2.17,0,0,1-2.14,1.11c-2.17,0-3.42-2-3.42-4.11s1.25-4.1,3.42-4.1a2.62,2.62,0,0,1,2.14,1.08h0V82.53a.67.67,0,1,1,1.33,0V92.86a.67.67,0,1,1-1.33,0Zm-2.06-6c-1.63,0-2.21,1.6-2.21,3s.58,3,2.21,3,2.2-1.6,2.2-3S133.29,86.5,131.66,86.5Z"/>
      <path d="M137.71,90a2.28,2.28,0,0,0,2.37,2.45c1.76,0,2.22-1.09,2.71-1.09a.53.53,0,0,1,.49.59c0,.65-1.65,1.65-3.22,1.65-2.56,0-3.68-2-3.68-4.11s1.36-4.1,3.61-4.1a3.65,3.65,0,0,1,3.45,3.91c0,.46-.16.7-.74.7Zm4.4-1A2.26,2.26,0,0,0,140,86.5c-1.65-.06-2.24,1.26-2.28,2.48Z"/>
      <path d="M144.05,86.52a1.59,1.59,0,0,1-.14-.54.59.59,0,0,1,.6-.62.65.65,0,0,1,.7.51L147,91.42h0l1.83-5.55a.65.65,0,0,1,.7-.51.59.59,0,0,1,.6.62,1.59,1.59,0,0,1-.14.54L147.74,93c-.13.39-.27.58-.69.58s-.56-.19-.69-.58Z"/>
      <path d="M152,90a2.28,2.28,0,0,0,2.36,2.45c1.77,0,2.22-1.09,2.72-1.09a.53.53,0,0,1,.48.59c0,.65-1.64,1.65-3.21,1.65-2.57,0-3.68-2-3.68-4.11s1.36-4.1,3.6-4.1a3.65,3.65,0,0,1,3.46,3.91c0,.46-.17.7-.74.7Zm4.4-1a2.26,2.26,0,0,0-2.13-2.48C152.62,86.44,152,87.76,152,89Z"/>
      <path d="M160.32,92.86a.65.65,0,0,1-.67.71.64.64,0,0,1-.66-.71V82.53a.63.63,0,0,1,.66-.7.64.64,0,0,1,.67.7Z"/>
      <path d="M165.25,85.36c2.26,0,3.53,2,3.53,4.1s-1.27,4.11-3.53,4.11-3.53-2-3.53-4.11S163,85.36,165.25,85.36Zm0,7.06c1.63,0,2.2-1.6,2.2-3s-.57-3-2.2-3-2.2,1.6-2.2,3S163.62,92.42,165.25,92.42Z"/>
      <path d="M170.25,86.07a.66.66,0,1,1,1.32,0v.39h0a2.19,2.19,0,0,1,2.15-1.1c2.17,0,3.42,2,3.42,4.1s-1.25,4.11-3.42,4.11a2.63,2.63,0,0,1-2.15-1.09h0V96a.66.66,0,1,1-1.32,0Zm3.39,6.35c1.63,0,2.2-1.6,2.2-3s-.57-3-2.2-3-2.2,1.6-2.2,3S172,92.42,173.64,92.42Z"/>
      <path d="M182.41,86.07a.67.67,0,1,1,1.33,0v.39h0a2.17,2.17,0,0,1,2.14-1.1c2.17,0,3.43,2,3.43,4.1s-1.26,4.11-3.43,4.11a2.6,2.6,0,0,1-2.14-1.09h0V96a.67.67,0,1,1-1.33,0Zm3.39,6.35c1.63,0,2.21-1.6,2.21-3s-.58-3-2.21-3-2.2,1.6-2.2,3S184.18,92.42,185.8,92.42Z"/>
      <path d="M191.59,90A2.28,2.28,0,0,0,194,92.42c1.77,0,2.22-1.09,2.72-1.09a.53.53,0,0,1,.48.59c0,.65-1.64,1.65-3.21,1.65-2.57,0-3.68-2-3.68-4.11s1.36-4.1,3.6-4.1a3.65,3.65,0,0,1,3.46,3.91c0,.46-.17.7-.74.7Zm4.4-1a2.26,2.26,0,0,0-2.13-2.48c-1.64-.06-2.23,1.26-2.27,2.48Z"/>
      <path d="M201.77,85.36c2.27,0,3.53,2,3.53,4.1s-1.26,4.11-3.53,4.11-3.53-2-3.53-4.11S199.51,85.36,201.77,85.36Zm0,7.06c1.63,0,2.21-1.6,2.21-3s-.58-3-2.21-3-2.2,1.6-2.2,3S200.14,92.42,201.77,92.42Z"/>
      <path d="M206.77,86.07a.63.63,0,0,1,.66-.71.64.64,0,0,1,.67.71v.39h0a2.17,2.17,0,0,1,2.14-1.1c2.17,0,3.42,2,3.42,4.1s-1.25,4.11-3.42,4.11a2.6,2.6,0,0,1-2.14-1.09h0V96a.64.64,0,0,1-.67.7.63.63,0,0,1-.66-.7Zm3.39,6.35c1.63,0,2.21-1.6,2.21-3s-.58-3-2.21-3-2.2,1.6-2.2,3S208.53,92.42,210.16,92.42Z"/>
      <path d="M216.43,92.86a.67.67,0,1,1-1.33,0V82.53a.67.67,0,1,1,1.33,0Z"/>
      <path d="M219,90a2.29,2.29,0,0,0,2.37,2.45c1.77,0,2.22-1.09,2.72-1.09a.53.53,0,0,1,.48.59c0,.65-1.64,1.65-3.21,1.65-2.57,0-3.69-2-3.69-4.11s1.36-4.1,3.61-4.1a3.65,3.65,0,0,1,3.46,3.91c0,.46-.17.7-.74.7Zm4.41-1a2.27,2.27,0,0,0-2.13-2.48c-1.64-.06-2.23,1.26-2.28,2.48Z"/>
    </g>
    <path d="M15.57,27c0-3.18,2-5.3,4.77-5.3s4.78,2.12,4.78,5.3V40h.13c2-2.46,5.71-3.32,8.7-3.32C41.44,36.67,47,41.45,47,49.54V67.85c0,3.19-2,5.31-4.77,5.31S37.46,71,37.46,67.85V51.2c0-4.44-2.78-6.57-6.24-6.57-3.91,0-6.1,2.86-6.1,6.57V67.85c0,3.19-2,5.31-4.78,5.31S15.57,71,15.57,67.85Z"/>
    <path d="M86.63,55.18c0,9.95-6.84,18.38-17.12,18.38S52.39,65.13,52.39,55.18c0-9.68,7-18.51,17.12-18.51S86.63,45.5,86.63,55.18ZM62,55.18c0,4.58,2.38,9.62,7.56,9.62s7.56-5,7.56-9.62-2.32-9.75-7.56-9.75S62,50.6,62,55.18Z"/>
    <path d="M90.68,45.43a13.19,13.19,0,0,1-1-4.51c0-2.13,2-3.85,4.78-3.85A4.55,4.55,0,0,1,99,40.85l5.51,18.25h.13l5.57-17.85c.73-2.59,2.06-4.18,4.85-4.18s4.11,1.59,4.84,4.18l5.57,17.85h.13l5.51-18.25a4.55,4.55,0,0,1,4.51-3.78,4.42,4.42,0,0,1,4.78,4.64,13.13,13.13,0,0,1-.93,3.59l-8.16,23c-1,2.78-2.65,4.84-5.77,4.84-2.92,0-4.65-1.66-5.51-4.44l-4.91-15.4H115l-4.91,15.4c-.86,2.78-2.59,4.44-5.51,4.44-3.12,0-4.77-2.06-5.77-4.84Z"/>
    <path d="M152.58,58.3c.66,4.71,4.58,6.9,9,6.9,4.91,0,8.3-3.85,10.82-3.85a4.24,4.24,0,0,1,3.91,4.12c0,4.11-8.49,8.09-15.59,8.09-10.75,0-17.91-7.83-17.91-18.38,0-9.68,7-18.51,17.12-18.51,10.35,0,17.18,9.42,17.18,17.38,0,2.86-1.26,4.25-4.18,4.25Zm15-6.37c-.53-4.18-3.18-7.3-7.62-7.3-4.25,0-7.1,3.25-7.57,7.3Z"/>
    <path d="M201.94,47.82c-1.79,0-5.44-2.79-8.55-2.79-1.73,0-3.26.8-3.26,2.65,0,4.45,16.59,3.79,16.59,14.67,0,6.37-5.37,11.21-13.6,11.21-5.37,0-13.34-3-13.34-7.37,0-1.45,1.46-4.24,4.12-4.24,3.71,0,5.37,3.25,9.88,3.25,2.92,0,3.79-.93,3.79-2.72,0-4.38-16.59-3.72-16.59-14.66,0-6.64,5.37-11.15,12.94-11.15,4.71,0,11.94,2.19,11.94,6.9A4.13,4.13,0,0,1,201.94,47.82Z"/>
    <path d="M215.08,45.83H213a3.87,3.87,0,0,1-4.18-4.18A4.08,4.08,0,0,1,213,37.47h2.12V31.76c0-3.18,2-5.31,4.78-5.31s4.78,2.13,4.78,5.31v5.71h2.72c2.45,0,4.57,1.13,4.57,4.18s-2.12,4.18-4.57,4.18h-2.72v22c0,3.19-2,5.31-4.78,5.31s-4.78-2.12-4.78-5.31Z"/>
    <path d="M114.51,32.68l6-19.39a.79.79,0,1,0-1.51-.47l-6.16,19.86Z"/>
    <path d="M99,77.55,93,96.68a.8.8,0,0,0,.52,1,1,1,0,0,0,.24,0,.8.8,0,0,0,.76-.56l6.07-19.6Z"/>
  </g>
</svg>
